<svg xmlns="http://www.w3.org/2000/svg" viewBox="0 0 24 24" width="24" height="24" fill="none">
  <path fill="#0F172A" d="M12 0.5C5.373 0.5 0 5.872 0 12.5c0 5.292 3.438 9.775 8.205 11.363.6.11.82-.26.82-.577 0-.285-.01-1.04-.015-2.04-3.338.725-4.042-1.61-4.042-1.61-.546-1.387-1.333-1.757-1.333-1.757-1.09-.746.083-.731.083-.731 1.205.085 1.84 1.238 1.84 1.238 1.07 1.835 2.807 1.305 3.492.998.107-.774.42-1.305.763-1.605-2.665-.303-5.466-1.332-5.466-5.932 0-1.31.469-2.381 1.237-3.221-.125-.303-.536-1.523.117-3.176 0 0 1.008-.322 3.3 1.23.96-.267 1.99-.399 3.012-.404 1.022.005 2.053.137 3.015.404 2.29-1.552 3.296-1.23 3.296-1.23.655 1.653.245 2.873.12 3.176.77.84 1.236 1.911 1.236 3.221 0 4.61-2.805 5.625-5.476 5.921.431.372.816 1.102.816 2.222 0 1.605-.014 2.896-.014 3.286 0 .319.216.694.825.576C20.565 22.27 24 17.79 24 12.5c0-6.628-5.373-12-12-12z"/>
</svg>
