<svg xmlns="http://www.w3.org/2000/svg" width="420" height="120" viewBox="0 0 420 120" fill="none">
  <rect width="420" height="120" rx="20" fill="#102a43"/>
  <path d="M70 39h20v54h-12V72H70v21H58V39h12v21h8V39z" fill="#E0F2FE"/>
  <path d="M106 93V39h32v12h-20v9h16v12h-16v21h-12z" fill="#E0F2FE"/>
  <path d="M160 93V39h12l18 30V39h12v54h-12l-18-30v30h-12z" fill="#52B6FF"/>
  <path d="M224 93V39h12v18h18V39h12v54h-12V69h-18v24h-12z" fill="#E0F2FE"/>
  <path d="M298 95c-14 0-24-9.2-24-23.5V39h12v32.2c0 7.1 4.6 11.3 12 11.3 7.4 0 12-4.2 12-11.3V39h12v32.5C322 85.8 312 95 298 95z" fill="#52B6FF"/>
  <path d="M342 93V39h12l22 30V39h12v54h-12l-22-29v29h-12z" fill="#E0F2FE"/>
  <text x="208" y="110" text-anchor="middle" font-family="'Noto Sans JP', 'Hiragino Sans', sans-serif" font-size="20" fill="#9CD7FF">AI・データ活用とPdM支援のTECMAH</text>
</svg>
